<mxfile host="65bd71144e">
    <diagram id="U4fAWVfcujTh_b4bNce4" name="Page-1">
        <mxGraphModel dx="1320" dy="921" grid="1" gridSize="10" guides="1" tooltips="1" connect="1" arrows="1" fold="1" page="1" pageScale="1" pageWidth="1169" pageHeight="827" math="0" shadow="0">
            <root>
                <mxCell id="0"/>
                <mxCell id="1" parent="0"/>
                <mxCell id="3" value="" style="strokeWidth=1;shadow=0;dashed=0;align=center;html=1;shape=mxgraph.mockup.containers.browserWindow;rSize=0;strokeColor=#666666;strokeColor2=#008cff;strokeColor3=#c4c4c4;mainText=,;recursiveResize=0;fontSize=20;" parent="1" vertex="1">
                    <mxGeometry x="8" y="9" width="1150" height="810" as="geometry"/>
                </mxCell>
                <mxCell id="4" value="Page 1" style="strokeWidth=1;shadow=0;dashed=0;align=center;html=1;shape=mxgraph.mockup.containers.anchor;fontSize=17;fontColor=#666666;align=left;" parent="3" vertex="1">
                    <mxGeometry x="60" y="12" width="110" height="26" as="geometry"/>
                </mxCell>
                <mxCell id="5" value="https://www.vmagnify.io/picture" style="strokeWidth=1;shadow=0;dashed=0;align=center;html=1;shape=mxgraph.mockup.containers.anchor;rSize=0;fontSize=17;fontColor=#666666;align=left;" parent="3" vertex="1">
                    <mxGeometry x="130" y="60" width="250" height="26" as="geometry"/>
                </mxCell>
                <mxCell id="6" value="" style="verticalLabelPosition=bottom;shadow=0;dashed=0;align=center;html=1;verticalAlign=top;strokeWidth=1;shape=mxgraph.mockup.misc.map;" parent="3" vertex="1">
                    <mxGeometry x="450" y="180" width="530" height="530" as="geometry"/>
                </mxCell>
                <mxCell id="7" value="https://en.wikipedia.org/&lt;br&gt;wiki/File:Python-logo-notext.svg" style="strokeWidth=1;shadow=0;dashed=0;align=center;html=1;shape=mxgraph.mockup.text.textBox;fontColor=#666666;align=left;fontSize=17;spacingLeft=4;spacingTop=-3;strokeColor=#666666;mainText=" vertex="1" parent="3">
                    <mxGeometry x="80" y="221" width="300" height="79" as="geometry"/>
                </mxCell>
                <mxCell id="8" value="URL" style="text;html=1;strokeColor=none;fillColor=none;align=center;verticalAlign=middle;whiteSpace=wrap;rounded=0;fontSize=20;" vertex="1" parent="3">
                    <mxGeometry x="80" y="180" width="300" height="30" as="geometry"/>
                </mxCell>
                <mxCell id="9" value="Load from URL" style="strokeWidth=1;shadow=0;dashed=0;align=center;html=1;shape=mxgraph.mockup.buttons.button;strokeColor=#666666;fontColor=#ffffff;mainText=;buttonStyle=round;fontSize=17;fontStyle=1;fillColor=#008cff;whiteSpace=wrap;" vertex="1" parent="3">
                    <mxGeometry x="80" y="321" width="300" height="50" as="geometry"/>
                </mxCell>
                <mxCell id="10" value="Load from Disk" style="strokeWidth=1;shadow=0;dashed=0;align=center;html=1;shape=mxgraph.mockup.buttons.button;strokeColor=#666666;fontColor=#ffffff;mainText=;buttonStyle=round;fontSize=17;fontStyle=1;fillColor=#008cff;whiteSpace=wrap;" vertex="1" parent="3">
                    <mxGeometry x="80" y="391" width="300" height="50" as="geometry"/>
                </mxCell>
                <mxCell id="11" value="" style="verticalLabelPosition=bottom;shadow=0;dashed=0;align=center;html=1;verticalAlign=top;strokeWidth=1;shape=mxgraph.mockup.forms.horSlider;strokeColor=#999999;sliderStyle=basic;sliderPos=20;handleStyle=circle;fillColor2=#ddeeff;fontSize=20;gradientColor=none;" vertex="1" parent="3">
                    <mxGeometry x="450" y="743" width="530" height="30" as="geometry"/>
                </mxCell>
                <mxCell id="16" value="Original Size" style="text;html=1;strokeColor=none;fillColor=none;align=center;verticalAlign=middle;whiteSpace=wrap;rounded=0;fontSize=20;" vertex="1" parent="3">
                    <mxGeometry x="450" y="715" width="120" height="30" as="geometry"/>
                </mxCell>
                <mxCell id="17" value="X4" style="text;html=1;strokeColor=none;fillColor=none;align=center;verticalAlign=middle;whiteSpace=wrap;rounded=0;fontSize=20;" vertex="1" parent="3">
                    <mxGeometry x="922" y="715" width="120" height="30" as="geometry"/>
                </mxCell>
                <mxCell id="12" value="&lt;p&gt;110 X 110 px&lt;/p&gt;" style="strokeWidth=1;shadow=0;dashed=0;align=center;html=1;shape=mxgraph.mockup.text.textBox;fontColor=#666666;align=left;fontSize=17;spacingLeft=4;spacingTop=-3;strokeColor=#666666;mainText=;fontStyle=0" vertex="1" parent="1">
                    <mxGeometry x="86" y="507" width="300" height="79" as="geometry"/>
                </mxCell>
                <mxCell id="13" value="Image Size" style="text;html=1;strokeColor=none;fillColor=none;align=center;verticalAlign=middle;whiteSpace=wrap;rounded=0;fontSize=20;" vertex="1" parent="1">
                    <mxGeometry x="86" y="466" width="300" height="30" as="geometry"/>
                </mxCell>
            </root>
        </mxGraphModel>
    </diagram>
</mxfile>